<?xml version="1.0" encoding="UTF-8" standalone="no"?>
<svg
   xmlns:dc="http://purl.org/dc/elements/1.1/"
   xmlns:cc="http://creativecommons.org/ns#"
   xmlns:rdf="http://www.w3.org/1999/02/22-rdf-syntax-ns#"
   xmlns:svg="http://www.w3.org/2000/svg"
   xmlns="http://www.w3.org/2000/svg"
   xmlns:sodipodi="http://sodipodi.sourceforge.net/DTD/sodipodi-0.dtd"
   xmlns:inkscape="http://www.inkscape.org/namespaces/inkscape"
   version="1.1"
   width="1000"
   height="1125"
   viewBox="0 0 1000 1125"
   id="svg63"
   sodipodi:docname="logoBlack.svg"
   inkscape:version="1.0.1 (3bc2e813f5, 2020-09-07)">
  <metadata
     id="metadata69">
    <rdf:RDF>
      <cc:Work
         rdf:about="">
        <dc:format>image/svg+xml</dc:format>
        <dc:type
           rdf:resource="http://purl.org/dc/dcmitype/StillImage" />
        <dc:title></dc:title>
      </cc:Work>
    </rdf:RDF>
  </metadata>
  <defs
     id="defs67">
    <defs
       id="defs52" />
  </defs>
  <sodipodi:namedview
     pagecolor="#ffffff"
     bordercolor="#666666"
     borderopacity="1"
     objecttolerance="10"
     gridtolerance="10"
     guidetolerance="10"
     inkscape:pageopacity="0"
     inkscape:pageshadow="2"
     inkscape:window-width="1920"
     inkscape:window-height="1051"
     id="namedview65"
     showgrid="false"
     inkscape:snap-global="false"
     inkscape:zoom="1.0705841"
     inkscape:cx="319.07507"
     inkscape:cy="289.01055"
     inkscape:window-x="-9"
     inkscape:window-y="-9"
     inkscape:window-maximized="1"
     inkscape:current-layer="svg63" />
  <g
     id="g239"
     transform="matrix(0.97021545,0,0,0.97413789,0,9.3103588)"
     inkscape:export-xdpi="92.800003"
     inkscape:export-ydpi="92.800003">
    <rect
       width="320"
       height="360"
       fill="none"
       stroke="none"
       visibility="hidden"
       id="rect56"
       x="0"
       y="0" />
    <g
       id="g8"
       style="fill:#000000">
      <path
         d="m 160,42.18 c 72.417,0 131.943,56.114 137.63,127.014 H 320 c -1.137,-17.82 -5.308,-34.882 -12.133,-51.185 C 299.905,99.052 288.151,81.611 273.365,67.204 258.578,52.417 241.517,41.043 222.559,32.701 202.464,24.36 181.611,19.81 160,19.81 138.389,19.81 117.536,23.981 97.441,32.322 78.484,40.284 61.043,52.038 46.635,66.825 31.848,81.612 20.474,98.673 12.133,117.63 5.308,133.933 1.138,151.374 0,168.815 H 22.37 C 28.057,98.294 87.583,42.18 160,42.18 Z m 0,276.019 C 87.583,318.199 28.057,262.085 22.37,191.185 H 0 c 1.137,17.82 5.308,34.882 12.133,51.185 7.962,18.957 19.716,36.398 34.502,50.805 14.787,14.787 31.848,26.161 50.806,34.503 19.716,8.341 40.569,12.512 62.559,12.512 21.991,0 42.464,-4.171 62.559,-12.512 18.957,-7.962 36.398,-19.716 50.806,-34.503 14.787,-14.787 26.161,-31.848 34.502,-50.805 6.825,-16.303 10.995,-33.744 12.133,-51.185 h -22.37 c -5.687,70.9 -65.213,127.014 -137.63,127.014 z"
         fill="#ffffff"
         fill-rule="nonzero"
         stroke="none"
         stroke-width="1"
         stroke-linecap="butt"
         stroke-linejoin="miter"
         stroke-miterlimit="10"
         stroke-dasharray="none"
         stroke-dashoffset="0"
         font-family="none"
         font-weight="none"
         font-size="none"
         text-anchor="none"
         style="mix-blend-mode:normal;fill:#000000"
         data-fill-palette-color="tertiary"
         id="path6" />
    </g>
  </g>
  <path
     d="m 61.727894,188.18857 v -16.34265 h 6.06937 q 1.110287,0 1.934816,0.33833 0.82453,0.34261 1.369255,0.9379 0.547702,0.5953 0.812623,1.41757 0.264921,0.81799 0.264921,1.77302 v 0 q 0,1.55461 -0.684628,2.72806 v 0 q 0.785833,0.66809 1.16982,1.73448 0.386963,1.06638 0.386963,2.42398 v 0 q 0,1.14348 -0.264921,2.05997 -0.267898,0.92077 -0.806669,1.57602 -0.541749,0.65096 -1.366279,1.00214 -0.824529,0.35118 -1.943745,0.35118 v 0 z m 2.303919,-10.06855 h 4.649513 q 0.300641,0 0.583422,0.03 v 0 q 0.485192,-0.66809 0.485192,-1.52463 v 0 q 0,-0.89079 -0.482216,-1.37473 -0.482216,-0.48822 -1.413904,-0.48822 v 0 h -3.822007 z m 0,7.18204 h 4.694162 q 0.931689,0 1.413905,-0.57388 0.482216,-0.57388 0.482216,-1.62314 v 0 q 0,-1.04496 -0.482216,-1.6274 -0.482216,-0.58673 -1.413905,-0.58673 v 0 h -4.694162 z m 10.683163,-5.33193 v 0 q 0,-1.85011 0.470309,-3.38758 0.473286,-1.53748 1.327582,-2.63813 0.854296,-1.10492 2.047928,-1.71306 1.19661,-0.60386 2.649211,-0.60386 v 0 q 1.446647,0 2.646233,0.60386 1.199586,0.60814 2.053881,1.71306 0.85132,1.10065 1.324605,2.63813 0.473287,1.53747 0.473287,3.38758 v 0 q 0,1.86297 -0.473287,3.41329 -0.473285,1.55461 -1.324605,2.67239 -0.854295,1.11777 -2.053881,1.73876 -1.199586,0.62527 -2.646233,0.62527 v 0 q -1.452601,0 -2.649211,-0.62527 -1.193632,-0.62099 -2.047928,-1.73876 -0.854296,-1.11778 -1.327582,-2.67239 -0.470309,-1.55032 -0.470309,-3.41329 z m 2.300944,0 v 0 q 0,1.2634 0.3185,2.27839 0.315524,1.01499 0.878109,1.73019 0.562585,0.71949 1.330558,1.10493 0.764996,0.38544 1.666919,0.38544 v 0 q 0.901922,0 1.666918,-0.38544 0.767973,-0.38544 1.327582,-1.10493 0.559608,-0.7152 0.878108,-1.73019 0.321478,-1.01499 0.321478,-2.27839 v 0 q 0,-1.26338 -0.321478,-2.26981 -0.3185,-1.00214 -0.878108,-1.69593 -0.559609,-0.69807 -1.327582,-1.0621 -0.764996,-0.36831 -1.666918,-0.36831 v 0 q -0.901923,0 -1.666919,0.36831 -0.767973,0.36403 -1.330558,1.0621 -0.562585,0.69379 -0.878109,1.69593 -0.3185,1.00643 -0.3185,2.26981 z m 12.579282,0 v 0 q 0,-1.85011 0.473286,-3.38758 0.473285,-1.53748 1.327581,-2.63813 0.851319,-1.10492 2.047928,-1.71306 1.19661,-0.60386 2.64921,-0.60386 v 0 q 1.446647,0 2.646233,0.60386 1.196611,0.60814 2.05091,1.71306 0.85429,1.10065 1.32758,2.63813 0.47328,1.53747 0.47328,3.38758 v 0 q 0,1.86297 -0.47328,3.41329 -0.47329,1.55461 -1.32758,2.67239 -0.854299,1.11777 -2.05091,1.73876 -1.199586,0.62527 -2.646233,0.62527 v 0 q -1.4526,0 -2.64921,-0.62527 -1.196609,-0.62099 -2.047928,-1.73876 -0.854296,-1.11778 -1.327581,-2.67239 -0.473286,-1.55032 -0.473286,-3.41329 z m 2.303919,0 v 0 q 0,1.2634 0.315524,2.27839 0.3185,1.01499 0.881085,1.73019 0.562585,0.71949 1.330559,1.10493 0.764996,0.38544 1.666918,0.38544 v 0 q 0.901922,0 1.666919,-0.38544 0.767973,-0.38544 1.327582,-1.10493 0.559608,-0.7152 0.878109,-1.73019 0.321473,-1.01499 0.321473,-2.27839 v 0 q 0,-1.26338 -0.321473,-2.26981 -0.318501,-1.00214 -0.878109,-1.69593 -0.559609,-0.69807 -1.327582,-1.0621 -0.764997,-0.36831 -1.666919,-0.36831 v 0 q -0.901922,0 -1.666918,0.36831 -0.767974,0.36403 -1.330559,1.0621 -0.562585,0.69379 -0.881085,1.69593 -0.315524,1.00643 -0.315524,2.26981 z m 16.672159,8.21844 v -13.43472 h -4.19408 v -2.90793 h 10.68912 v 2.90793 h -4.1941 v 13.43472 z m 8.25423,-2.17559 1.22637,-2.68523 q 0.61914,0.50107 1.25317,0.90364 0.637,0.40257 1.32163,0.68094 0.68165,0.2741 1.43474,0.41971 0.75011,0.14989 1.60143,0.14989 v 0 q 1.02396,0 1.74431,-0.19272 0.72035,-0.197 1.1728,-0.53533 0.45543,-0.33833 0.66082,-0.80943 0.20835,-0.47109 0.20835,-1.02355 v 0 q 0,-0.8908 -0.51495,-1.40901 -0.51793,-0.51819 -1.5925,-0.51819 v 0 q -0.47329,0 -0.9942,0.0899 -0.52389,0.0899 -1.05969,0.19272 -0.53282,0.10706 -1.05372,0.19272 -0.51795,0.0899 -0.97634,0.0899 v 0 q -0.76203,0 -1.46451,-0.28266 -0.70249,-0.28266 -1.24126,-0.84797 -0.54175,-0.56104 -0.86323,-1.409 -0.3185,-0.84797 -0.3185,-1.97859 v 0 q 0,-0.6681 0.128,-1.32763 0.12502,-0.65524 0.40482,-1.2591 0.27981,-0.59957 0.72332,-1.11778 0.44352,-0.5182 1.0716,-0.89507 0.62807,-0.37687 1.45558,-0.59101 0.82453,-0.21413 1.87825,-0.21413 v 0 q 0.76202,0 1.53297,0.11991 0.77095,0.11992 1.50023,0.34261 0.72927,0.21842 1.40497,0.52677 0.6757,0.30836 1.25912,0.68523 v 0 l -1.01205,2.67666 q -0.47924,-0.30406 -1.02992,-0.56103 -0.55365,-0.25696 -1.15494,-0.44111 -0.60426,-0.18844 -1.24721,-0.29979 -0.64296,-0.11134 -1.3127,-0.11134 v 0 q -0.95252,0 -1.56571,0.20128 -0.61319,0.197 -0.97635,0.50535 -0.36314,0.30836 -0.50602,0.68952 -0.14288,0.38115 -0.14288,0.75802 v 0 q 0,0.73235 0.4584,1.19915 0.45841,0.46253 1.39605,0.46253 v 0 q 0.37804,0 0.86917,-0.0771 0.48818,-0.0771 1.02992,-0.17131 0.54175,-0.0943 1.10434,-0.1713 0.56556,-0.0814 1.09541,-0.0814 v 0 q 1.00312,0 1.77704,0.32548 0.77394,0.32548 1.29782,0.92506 0.52091,0.59957 0.79179,1.45183 0.2679,0.85224 0.2679,1.91006 v 0 q 0,1.409 -0.45543,2.51392 -0.45245,1.10493 -1.29186,1.86297 -0.83941,0.75803 -2.02411,1.14775 -1.18471,0.39401 -2.63731,0.39401 v 0 q -0.96146,0 -1.87528,-0.1756 -0.91681,-0.1713 -1.75622,-0.48822 -0.83942,-0.32119 -1.59846,-0.7666 -0.75904,-0.44111 -1.40497,-0.97644 z m 19.00287,2.17559 v -13.43472 h -4.19409 v -2.90793 h 10.68912 v 2.90793 h -4.19111 v 13.43472 z m 8.95075,0 v -16.34265 h 5.77767 q 1.30971,0 2.26819,0.394 0.95848,0.38973 1.59251,1.13491 0.63104,0.7409 0.94062,1.80729 0.30957,1.06638 0.30957,2.41542 v 0 q 0,0.90793 -0.15479,1.7302 -0.15181,0.82227 -0.46733,1.51177 -0.31553,0.68952 -0.79774,1.22913 -0.47925,0.53534 -1.12518,0.89079 v 0 l 2.47061,5.22914 h -2.81887 l -2.13722,-4.6424 h -0.0655 l -3.48862,-0.009 v 4.65097 z m 2.30393,-7.51608 h 3.53327 q 0.65486,0 1.14303,-0.2227 0.49114,-0.21841 0.82155,-0.61669 0.33041,-0.39402 0.49412,-0.9679 0.16372,-0.56958 0.16372,-1.26766 v 0 q 0,-1.37045 -0.65487,-2.11992 -0.65188,-0.74518 -1.96755,-0.74518 v 0 h -3.53327 z m 9.84672,7.51608 5.33414,-16.34265 h 2.44085 l 5.49487,16.34265 h -2.42 l -0.90788,-2.74947 h -6.63493 l -0.87811,2.74947 z m 4.18516,-5.47753 h 4.84894 l -2.45573,-7.42614 z m 10.84985,5.47753 v -16.34265 h 5.989 q 1.30674,0 2.2682,0.40685 0.95848,0.41114 1.58953,1.17774 0.63402,0.7666 0.94062,1.87581 0.30957,1.10921 0.30957,2.50107 v 0 q 0,1.30622 -0.30362,2.41543 -0.30659,1.10493 -0.93467,1.91862 -0.62807,0.80943 -1.58952,1.2634 -0.95848,0.45396 -2.26523,0.45396 v 0 l -3.69996,-0.009 v 4.33834 z m 2.30392,-7.20345 h 3.74164 q 0.65486,0 1.146,-0.22697 0.49115,-0.2227 0.82155,-0.63812 0.33042,-0.41114 0.49413,-1.00214 0.16372,-0.59102 0.16372,-1.3105 v 0 q 0,-1.45611 -0.65785,-2.26553 -0.65783,-0.80942 -1.96755,-0.80942 v 0 h -3.74164 z m 16.24948,7.20345 v -16.34265 h 6.06639 q 1.11326,0 1.93779,0.33833 0.82453,0.34261 1.36927,0.9379 0.54472,0.5953 0.80964,1.41757 0.26492,0.81799 0.26492,1.77302 v 0 q 0,1.55461 -0.68165,2.72806 v 0 q 0.78285,0.66809 1.16982,1.73448 0.38398,1.06638 0.38398,2.42398 v 0 q 0,1.14348 -0.26491,2.05997 -0.26493,0.92077 -0.80668,1.57602 -0.54174,0.65096 -1.36627,1.00214 -0.82453,0.35118 -1.94375,0.35118 v 0 z m 2.30094,-10.06855 h 4.65249 q 0.29766,0 0.58045,0.03 v 0 q 0.48817,-0.66809 0.48817,-1.52463 v 0 q 0,-0.89079 -0.4852,-1.37473 -0.48221,-0.48822 -1.41092,-0.48822 v 0 h -3.82499 z m 0,7.18204 h 4.69714 q 0.92871,0 1.41093,-0.57388 0.48519,-0.57388 0.48519,-1.62314 v 0 q 0,-1.04496 -0.48519,-1.6274 -0.48222,-0.58673 -1.41093,-0.58673 v 0 h -4.69714 z m 11.35291,2.88651 v -16.34265 h 5.77765 q 1.30675,0 2.26524,0.394 0.96145,0.38973 1.59249,1.13491 0.63105,0.7409 0.94062,1.80729 0.30957,1.06638 0.30957,2.41542 v 0 q 0,0.90793 -0.1518,1.7302 -0.15479,0.82227 -0.47031,1.51177 -0.31553,0.68952 -0.79476,1.22913 -0.47925,0.53534 -1.12815,0.89079 v 0 l 2.47358,5.22914 h -2.82185 l -2.13722,-4.6424 h -0.0655 l -3.48564,-0.009 v 4.65097 z m 2.30392,-7.51608 h 3.53029 q 0.65486,0 1.14601,-0.2227 0.48817,-0.21841 0.82155,-0.61669 0.33041,-0.39402 0.49413,-0.9679 0.16073,-0.56958 0.16073,-1.26766 v 0 q 0,-1.37045 -0.65188,-2.11992 -0.65486,-0.74518 -1.97054,-0.74518 v 0 h -3.53029 z m 11.30528,7.51608 v -16.34265 h 9.67408 v 2.90793 h -7.37016 v 3.26339 h 6.52777 v 2.72806 h -6.52777 v 4.54819 h 7.52197 v 2.89508 z m 15.93098,0 -5.01564,-16.34265 h 2.51526 l 3.08082,10.54821 0.71142,2.55247 0.55961,-2.55247 1.1341,-3.84584 -2.04198,-6.70237 h 2.36941 l 0.83644,3.19058 0.7769,-3.19058 h 2.36941 l -2.04198,6.70237 1.15494,3.93149 0.69653,2.46682 0.53878,-2.50964 3.0957,-10.59104 h 2.51526 l -5.01564,16.34265 h -2.28309 l -1.00908,-3.24197 -0.82155,-3.14777 -0.82155,3.14777 -1.02396,3.24197 z m 15.01119,0 v -16.34265 h 9.67409 v 2.90793 h -7.37016 v 3.26339 h 6.52777 v 2.72806 h -6.52777 v 4.54819 h 7.52197 v 2.89508 z m 12.38283,0 v -16.34265 h 5.77766 q 1.30675,0 2.2682,0.394 0.95848,0.38973 1.58952,1.13491 0.63403,0.7409 0.94361,1.80729 0.30658,1.06638 0.30658,2.41542 v 0 q 0,0.90793 -0.1518,1.7302 -0.15181,0.82227 -0.46733,1.51177 -0.31851,0.68952 -0.79774,1.22913 -0.47925,0.53534 -1.12518,0.89079 v 0 l 2.47061,5.22914 h -2.81888 l -2.13722,-4.6424 h -0.0655 l -3.48861,-0.009 v 4.65097 z m 2.30392,-7.51608 h 3.53327 q 0.65188,0 1.14303,-0.2227 0.49115,-0.21841 0.82156,-0.61669 0.3304,-0.39402 0.49412,-0.9679 0.16371,-0.56958 0.16371,-1.26766 v 0 q 0,-1.37045 -0.65486,-2.11992 -0.65486,-0.74518 -1.96756,-0.74518 v 0 h -3.53327 z m 14.78795,7.51608 v -4.04712 l -4.96206,-12.29553 h 2.60754 l 3.49457,9.29339 3.45291,-9.29339 h 2.60754 l -4.89658,12.27412 v 4.06853 z"
     opacity="1"
     fill="#ffffff"
     class="undefined-text-0"
     data-fill-palette-color="primary"
     id="text-0"
     style="fill:#000000;stroke-width:0.357043" />
  <g
     fill="#81ffd9"
     data-fill-palette-color="accent"
     id="g31"
     style="fill:#000000"
     transform="matrix(0.45857458,0,0,0.43955828,19.598336,167.19845)">
    <path
       fill="#81ffd9"
       d="M 82.756,46.539 H 72.98 L 72.561,39.413 C 72.455,37.582 70.94,36.154 69.104,36.154 H 34.097 c -1.836,0 -3.35,1.428 -3.457,3.259 L 27.586,91.336 C 27.47,93.323 29.05,95 31.043,95 h 41.119 c 1.989,0 3.57,-1.677 3.455,-3.665 L 74.812,77.692 h 7.944 c 3.823,0 6.923,-3.1 6.923,-6.923 V 53.461 C 89.68,49.638 86.58,46.539 82.756,46.539 M 69.118,81.164 c 0,3.823 -3.308,6.923 -7.131,6.923 H 41.218 c -3.825,0 -6.715,-3.1 -6.715,-6.923 V 43.087 h 6.715 V 58.654 L 42.948,72.5 44.679,58.654 V 43.087 l 24.486,-0.01 z M 82.964,70.77 H 74.406 L 73.388,53.462 h 9.575 V 70.77 Z"
       data-fill-palette-color="accent"
       id="path27"
       style="fill:#000000" />
    <path
       fill="#81ffd9"
       d="M 66.944,8.826 C 62.365,7.719 58.084,9.219 55.246,12.132 52.874,7.889 48.34,5 43.156,5 37.991,5 33.469,7.87 31.09,12.092 28.833,10.77 26.178,10.056 23.34,10.216 15.056,10.676 9.324,18.603 10.464,26.82 c 1.278,9.198 8.461,15.472 8.461,23.18 0,8.461 -3.461,8.078 -3.461,15.577 0,7.501 6.923,5.192 6.923,5.192 0,0 1.611,-32.885 1.73,-32.885 v -1.731 c 0,-3.823 3.1,-6.923 6.923,-6.923 h 5.907 28.708 c 6.602,0 10.243,-1.91 10.383,-8.392 0.12,-5.578 -3.669,-10.7 -9.094,-12.012"
       data-fill-palette-color="accent"
       id="path29"
       style="fill:#000000" />
  </g>
</svg>
