<svg xmlns="http://www.w3.org/2000/svg" version="1.1" xmlns:xlink="http://www.w3.org/1999/xlink" xmlns:svgjs="http://svgjs.dev/svgjs" width="1000" height="1125" viewBox="0 0 1000 1125"><g transform="matrix(1,0,0,1,0,0)"><svg viewBox="0 0 320 360" data-background-color="#051726" preserveAspectRatio="xMidYMid meet" height="1125" width="1000" xmlns="http://www.w3.org/2000/svg" xmlns:xlink="http://www.w3.org/1999/xlink"><g id="tight-bounds" transform="matrix(1,0,0,1,0,0)"><svg viewBox="0 0 320 360" height="360" width="320"><g><svg></svg></g><g><svg viewBox="0 0 320 360" height="360" width="320"><g><path xmlns="http://www.w3.org/2000/svg" d="M160 42.18c72.417 0 131.943 56.114 137.63 127.014h22.37c-1.137-17.82-5.308-34.882-12.133-51.185-7.962-18.957-19.716-36.398-34.502-50.805-14.787-14.787-31.848-26.161-50.806-34.503-20.095-8.341-40.948-12.891-62.559-12.891-21.611 0-42.464 4.171-62.559 12.512-18.957 7.962-36.398 19.716-50.806 34.503-14.787 14.787-26.161 31.848-34.502 50.805-6.825 16.303-10.995 33.744-12.133 51.185h22.37c5.687-70.521 65.213-126.635 137.63-126.635zM160 318.199c-72.417 0-131.943-56.114-137.63-127.014h-22.37c1.137 17.82 5.308 34.882 12.133 51.185 7.962 18.957 19.716 36.398 34.502 50.805 14.787 14.787 31.848 26.161 50.806 34.503 19.716 8.341 40.569 12.512 62.559 12.512 21.991 0 42.464-4.171 62.559-12.512 18.957-7.962 36.398-19.716 50.806-34.503 14.787-14.787 26.161-31.848 34.502-50.805 6.825-16.303 10.995-33.744 12.133-51.185h-22.37c-5.687 70.9-65.213 127.014-137.63 127.014z" fill="#ffffff" fill-rule="nonzero" stroke="none" stroke-width="1" stroke-linecap="butt" stroke-linejoin="miter" stroke-miterlimit="10" stroke-dasharray="" stroke-dashoffset="0" font-family="none" font-weight="none" font-size="none" text-anchor="none" style="mix-blend-mode: normal" data-fill-palette-color="tertiary"></path></g><g transform="matrix(1,0,0,1,56,167.45878766726563)"><svg viewBox="0 0 208 25.08242466546874" height="25.08242466546874" width="208"><g><svg viewBox="0 0 235.61542615193542 28.41252969460689" height="25.08242466546874" width="208"><g transform="matrix(1,0,0,1,27.615426151935416,8.7798840805718)"><svg viewBox="0 0 208 10.852761533463289" height="10.852761533463289" width="208"><g><svg viewBox="0 0 208 10.852761533463289" height="10.852761533463289" width="208"><g><svg viewBox="0 0 208 10.852761533463289" height="10.852761533463289" width="208"><g transform="matrix(1,0,0,1,0,0)"><svg width="208" viewBox="5.420000076293945 -38.66999816894531 751.4200439453125 39.209999084472656" height="10.852761533463289" data-palette-color="#ffffff"><path d="M5.42 0L5.42-38.16 25.81-38.16Q29.54-38.16 32.31-37.37 35.08-36.57 36.91-35.18 38.75-33.79 39.64-31.87 40.53-29.96 40.53-27.73L40.53-27.73Q40.53-24.1 38.23-21.36L38.23-21.36Q40.87-19.8 42.16-17.31 43.46-14.82 43.46-11.65L43.46-11.65Q43.46-8.98 42.57-6.84 41.67-4.69 39.86-3.16 38.04-1.64 35.27-0.82 32.5 0 28.74 0L28.74 0 5.42 0ZM13.16-23.51L28.78-23.51Q29.79-23.51 30.74-23.44L30.74-23.44Q32.37-25 32.37-27L32.37-27Q32.37-29.08 30.75-30.21 29.13-31.35 26-31.35L26-31.35 13.16-31.35 13.16-23.51ZM13.16-6.74L28.93-6.74Q32.06-6.74 33.68-8.08 35.3-9.42 35.3-11.87L35.3-11.87Q35.3-14.31 33.68-15.67 32.06-17.04 28.93-17.04L28.93-17.04 13.16-17.04 13.16-6.74ZM49.05-19.19L49.05-19.19Q49.05-23.51 50.63-27.1 52.22-30.69 55.09-33.26 57.96-35.84 61.97-37.26 65.99-38.67 70.87-38.67L70.87-38.67Q75.73-38.67 79.76-37.26 83.79-35.84 86.66-33.26 89.52-30.69 91.11-27.1 92.7-23.51 92.7-19.19L92.7-19.19Q92.7-14.84 91.11-11.22 89.52-7.59 86.66-4.98 83.79-2.37 79.76-0.92 75.73 0.54 70.87 0.54L70.87 0.54Q65.99 0.54 61.97-0.92 57.96-2.37 55.09-4.98 52.22-7.59 50.63-11.22 49.05-14.84 49.05-19.19ZM56.78-19.19L56.78-19.19Q56.78-16.24 57.85-13.87 58.91-11.5 60.8-9.83 62.69-8.15 65.27-7.25 67.84-6.35 70.87-6.35L70.87-6.35Q73.9-6.35 76.47-7.25 79.05-8.15 80.93-9.83 82.81-11.5 83.88-13.87 84.96-16.24 84.96-19.19L84.96-19.19Q84.96-22.14 83.88-24.49 82.81-26.83 80.93-28.45 79.05-30.08 76.47-30.93 73.9-31.79 70.87-31.79L70.87-31.79Q67.84-31.79 65.27-30.93 62.69-30.08 60.8-28.45 58.91-26.83 57.85-24.49 56.78-22.14 56.78-19.19ZM99.04-19.19L99.04-19.19Q99.04-23.51 100.63-27.1 102.22-30.69 105.09-33.26 107.95-35.84 111.97-37.26 115.99-38.67 120.87-38.67L120.87-38.67Q125.73-38.67 129.76-37.26 133.78-35.84 136.65-33.26 139.52-30.69 141.11-27.1 142.7-23.51 142.7-19.19L142.7-19.19Q142.7-14.84 141.11-11.22 139.52-7.59 136.65-4.98 133.78-2.37 129.76-0.92 125.73 0.54 120.87 0.54L120.87 0.54Q115.99 0.54 111.97-0.92 107.95-2.37 105.09-4.98 102.22-7.59 100.63-11.22 99.04-14.84 99.04-19.19ZM106.78-19.19L106.78-19.19Q106.78-16.24 107.84-13.87 108.91-11.5 110.8-9.83 112.69-8.15 115.27-7.25 117.84-6.35 120.87-6.35L120.87-6.35Q123.9-6.35 126.47-7.25 129.05-8.15 130.93-9.83 132.81-11.5 133.88-13.87 134.96-16.24 134.96-19.19L134.96-19.19Q134.96-22.14 133.88-24.49 132.81-26.83 130.93-28.45 129.05-30.08 126.47-30.93 123.9-31.79 120.87-31.79L120.87-31.79Q117.84-31.79 115.27-30.93 112.69-30.08 110.8-28.45 108.91-26.83 107.84-24.49 106.78-22.14 106.78-19.19ZM162.79 0L162.79-31.37 148.7-31.37 148.7-38.16 184.61-38.16 184.61-31.37 170.52-31.37 170.52 0 162.79 0ZM190.52-5.08L194.64-11.35Q196.72-10.18 198.85-9.24 200.99-8.3 203.29-7.65 205.58-7.01 208.11-6.67 210.63-6.32 213.49-6.32L213.49-6.32Q216.93-6.32 219.35-6.77 221.77-7.23 223.29-8.02 224.82-8.81 225.51-9.91 226.21-11.01 226.21-12.3L226.21-12.3Q226.21-14.38 224.48-15.59 222.74-16.8 219.13-16.8L219.13-16.8Q217.54-16.8 215.79-16.59 214.03-16.38 212.23-16.14 210.44-15.89 208.69-15.69 206.95-15.48 205.41-15.48L205.41-15.48Q202.85-15.48 200.49-16.14 198.13-16.8 196.32-18.12 194.5-19.43 193.42-21.41 192.35-23.39 192.35-26.03L192.35-26.03Q192.35-27.59 192.78-29.13 193.2-30.66 194.14-32.07 195.08-33.47 196.57-34.68 198.06-35.89 200.17-36.77 202.28-37.65 205.06-38.15 207.83-38.65 211.37-38.65L211.37-38.65Q213.93-38.65 216.52-38.37 219.11-38.09 221.56-37.57 224.01-37.06 226.28-36.34 228.55-35.62 230.51-34.74L230.51-34.74 227.11-28.49Q225.5-29.2 223.65-29.8 221.79-30.4 219.77-30.83 217.74-31.27 215.58-31.53 213.42-31.79 211.17-31.79L211.17-31.79Q207.97-31.79 205.91-31.32 203.85-30.86 202.63-30.14 201.41-29.42 200.93-28.53 200.45-27.64 200.45-26.76L200.45-26.76Q200.45-25.05 201.99-23.96 203.53-22.88 206.68-22.88L206.68-22.88Q207.95-22.88 209.6-23.06 211.24-23.24 213.06-23.46 214.88-23.68 216.77-23.86 218.67-24.05 220.45-24.05L220.45-24.05Q223.82-24.05 226.42-23.29 229.02-22.53 230.78-21.13 232.53-19.73 233.44-17.74 234.34-15.75 234.34-13.28L234.34-13.28Q234.34-9.99 232.81-7.41 231.29-4.83 228.47-3.06 225.65-1.29 221.67-0.38 217.69 0.54 212.81 0.54L212.81 0.54Q209.58 0.54 206.51 0.13 203.43-0.27 200.61-1.01 197.79-1.76 195.24-2.8 192.69-3.83 190.52-5.08L190.52-5.08ZM254.36 0L254.36-31.37 240.27-31.37 240.27-38.16 276.18-38.16 276.18-31.37 262.1-31.37 262.1 0 254.36 0ZM284.43 0L284.43-38.16 303.84-38.16Q308.24-38.16 311.46-37.24 314.68-36.33 316.81-34.59 318.93-32.86 319.97-30.37 321.01-27.88 321.01-24.73L321.01-24.73Q321.01-22.61 320.49-20.69 319.98-18.77 318.92-17.16 317.86-15.55 316.24-14.29 314.63-13.04 312.46-12.21L312.46-12.21 320.76 0 311.29 0 304.11-10.84 303.89-10.84 292.17-10.86 292.17 0 284.43 0ZM292.17-17.55L304.04-17.55Q306.24-17.55 307.88-18.07 309.53-18.58 310.64-19.51 311.75-20.43 312.3-21.77 312.85-23.1 312.85-24.73L312.85-24.73Q312.85-27.93 310.65-29.68 308.46-31.42 304.04-31.42L304.04-31.42 292.17-31.42 292.17-17.55ZM325.25 0L343.17-38.16 351.37-38.16 369.83 0 361.7 0 358.65-6.42 336.36-6.42 333.41 0 325.25 0ZM339.31-12.79L355.6-12.79 347.35-30.13 339.31-12.79ZM375.76 0L375.76-38.16 395.88-38.16Q400.27-38.16 403.5-37.21 406.72-36.25 408.84-34.46 410.97-32.67 412-30.08 413.04-27.49 413.04-24.24L413.04-24.24Q413.04-21.19 412.02-18.6 410.99-16.02 408.88-14.12 406.77-12.23 403.54-11.17 400.32-10.11 395.93-10.11L395.93-10.11 383.5-10.13 383.5 0 375.76 0ZM383.5-16.82L396.07-16.82Q398.27-16.82 399.92-17.35 401.57-17.87 402.68-18.84 403.79-19.8 404.34-21.18 404.89-22.56 404.89-24.24L404.89-24.24Q404.89-27.64 402.68-29.53 400.47-31.42 396.07-31.42L396.07-31.42 383.5-31.42 383.5-16.82ZM438.09 0L438.09-38.16 458.47-38.16Q462.21-38.16 464.98-37.37 467.75-36.57 469.58-35.18 471.41-33.79 472.3-31.87 473.19-29.96 473.19-27.73L473.19-27.73Q473.19-24.1 470.9-21.36L470.9-21.36Q473.53-19.8 474.83-17.31 476.12-14.82 476.12-11.65L476.12-11.65Q476.12-8.98 475.23-6.84 474.34-4.69 472.52-3.16 470.7-1.64 467.93-0.82 465.16 0 461.4 0L461.4 0 438.09 0ZM445.82-23.51L461.45-23.51Q462.45-23.51 463.4-23.44L463.4-23.44Q465.04-25 465.04-27L465.04-27Q465.04-29.08 463.41-30.21 461.79-31.35 458.67-31.35L458.67-31.35 445.82-31.35 445.82-23.51ZM445.82-6.74L461.6-6.74Q464.72-6.74 466.34-8.08 467.97-9.42 467.97-11.87L467.97-11.87Q467.97-14.31 466.34-15.67 464.72-17.04 461.6-17.04L461.6-17.04 445.82-17.04 445.82-6.74ZM483.96 0L483.96-38.16 503.37-38.16Q507.76-38.16 510.98-37.24 514.21-36.33 516.33-34.59 518.45-32.86 519.49-30.37 520.53-27.88 520.53-24.73L520.53-24.73Q520.53-22.61 520.02-20.69 519.5-18.77 518.44-17.16 517.38-15.55 515.77-14.29 514.16-13.04 511.98-12.21L511.98-12.21 520.29 0 510.81 0 503.63-10.84 503.41-10.84 491.7-10.86 491.7 0 483.96 0ZM491.7-17.55L503.56-17.55Q505.76-17.55 507.41-18.07 509.05-18.58 510.17-19.51 511.28-20.43 511.83-21.77 512.37-23.1 512.37-24.73L512.37-24.73Q512.37-27.93 510.18-29.68 507.98-31.42 503.56-31.42L503.56-31.42 491.7-31.42 491.7-17.55ZM529.68 0L529.68-38.16 562.18-38.16 562.18-31.37 537.42-31.37 537.42-23.75 559.35-23.75 559.35-17.38 537.42-17.38 537.42-6.76 562.69-6.76 562.69 0 529.68 0ZM583.2 0L566.35-38.16 574.8-38.16 585.15-13.53 587.54-7.57 589.42-13.53 593.23-22.51 586.37-38.16 594.33-38.16 597.14-30.71 599.75-38.16 607.71-38.16 600.85-22.51 604.73-13.33 607.07-7.57 608.88-13.43 619.28-38.16 627.73-38.16 610.88 0 603.21 0 599.82-7.57 597.06-14.92 594.3-7.57 590.86 0 583.2 0ZM633.63 0L633.63-38.16 666.13-38.16 666.13-31.37 641.37-31.37 641.37-23.75 663.3-23.75 663.3-17.38 641.37-17.38 641.37-6.76 666.64-6.76 666.64 0 633.63 0ZM675.23 0L675.23-38.16 694.64-38.16Q699.03-38.16 702.26-37.24 705.48-36.33 707.6-34.59 709.73-32.86 710.77-30.37 711.8-27.88 711.8-24.73L711.8-24.73Q711.8-22.61 711.29-20.69 710.78-18.77 709.72-17.16 708.65-15.55 707.04-14.29 705.43-13.04 703.26-12.21L703.26-12.21 711.56 0 702.09 0 694.91-10.84 694.69-10.84 682.97-10.86 682.97 0 675.23 0ZM682.97-17.55L694.84-17.55Q697.03-17.55 698.68-18.07 700.33-18.58 701.44-19.51 702.55-20.43 703.1-21.77 703.65-23.1 703.65-24.73L703.65-24.73Q703.65-27.93 701.45-29.68 699.25-31.42 694.84-31.42L694.84-31.42 682.97-31.42 682.97-17.55ZM732.65 0L732.65-9.45 715.98-38.16 724.74-38.16 736.48-16.46 748.08-38.16 756.84-38.16 740.39-9.5 740.39 0 732.65 0Z" opacity="1" transform="matrix(1,0,0,1,0,0)" fill="#ffffff" class="undefined-text-0" data-fill-palette-color="primary" id="text-0"></path></svg></g></svg></g></svg></g></svg></g><g><svg viewBox="0 0 25.053349620161537 28.41252969460689" height="28.41252969460689" width="25.053349620161537"><g><svg xmlns="http://www.w3.org/2000/svg" xmlns:xlink="http://www.w3.org/1999/xlink" version="1.1" x="0" y="0" viewBox="10.319592475891113 5 79.35940551757812 90" enable-background="new 0 0 100 100" xml:space="preserve" height="28.41252969460689" width="25.053349620161537" class="icon-icon-0" data-fill-palette-color="accent" id="icon-0"><g fill="#81ffd9" data-fill-palette-color="accent"><path fill="#81ffd9" d="M82.756 46.539H72.98l-0.419-7.126c-0.106-1.831-1.621-3.259-3.457-3.259H34.097c-1.836 0-3.35 1.428-3.457 3.259l-3.054 51.923C27.47 93.323 29.05 95 31.043 95h41.119c1.989 0 3.57-1.677 3.455-3.665l-0.805-13.643h7.944c3.823 0 6.923-3.1 6.923-6.923V53.461C89.68 49.638 86.58 46.539 82.756 46.539M69.118 81.164c0 3.823-3.308 6.923-7.131 6.923H41.218c-3.825 0-6.715-3.1-6.715-6.923V43.087h6.715v15.567l1.73 13.846 1.731-13.846V43.087l24.486-0.01L69.118 81.164zM82.964 70.77h-8.558l-1.018-17.308h9.575V70.77z" data-fill-palette-color="accent"></path><path fill="#81ffd9" d="M66.944 8.826c-4.579-1.107-8.86 0.393-11.698 3.306C52.874 7.889 48.34 5 43.156 5c-5.165 0-9.687 2.87-12.066 7.092-2.257-1.322-4.912-2.036-7.75-1.876-8.284 0.46-14.016 8.387-12.876 16.604 1.278 9.198 8.461 15.472 8.461 23.18 0 8.461-3.461 8.078-3.461 15.577 0 7.501 6.923 5.192 6.923 5.192s1.611-32.885 1.73-32.885v-1.731c0-3.823 3.1-6.923 6.923-6.923h5.907 28.708c6.602 0 10.243-1.91 10.383-8.392C76.158 15.26 72.369 10.138 66.944 8.826" data-fill-palette-color="accent"></path></g></svg></g></svg></g></svg></g></svg></g></svg></g><defs></defs></svg><rect width="320" height="360" fill="none" stroke="none" visibility="hidden"></rect></g></svg></g></svg>